<mxfile host="app.diagrams.net" modified="2022-05-12T14:12:50.759Z" agent="5.0 (Windows NT 10.0; Win64; x64) AppleWebKit/537.36 (KHTML, like Gecko) Chrome/101.0.4951.54 Safari/537.36" etag="0Mv1fHvdtO8tMbrZAtVI" version="18.0.3" type="github">
  <diagram id="C5RBs43oDa-KdzZeNtuy" name="Page-1">
    <mxGraphModel dx="2461" dy="813" grid="1" gridSize="10" guides="1" tooltips="1" connect="1" arrows="1" fold="1" page="1" pageScale="1" pageWidth="827" pageHeight="1169" math="0" shadow="0">
      <root>
        <mxCell id="WIyWlLk6GJQsqaUBKTNV-0" />
        <mxCell id="WIyWlLk6GJQsqaUBKTNV-1" parent="WIyWlLk6GJQsqaUBKTNV-0" />
        <mxCell id="ckQmLvrvawy4H5b1-48t-27" value="start" style="ellipse;whiteSpace=wrap;html=1;hachureGap=4;fillColor=#dae8fc;strokeColor=#6c8ebf;" vertex="1" parent="WIyWlLk6GJQsqaUBKTNV-1">
          <mxGeometry x="-60" y="30" width="120" height="50" as="geometry" />
        </mxCell>
        <mxCell id="ckQmLvrvawy4H5b1-48t-29" value="if the user credentials&amp;nbsp;&lt;br&gt;are true" style="rhombus;whiteSpace=wrap;html=1;hachureGap=4;" vertex="1" parent="WIyWlLk6GJQsqaUBKTNV-1">
          <mxGeometry x="-80" y="250" width="160" height="120" as="geometry" />
        </mxCell>
        <mxCell id="ckQmLvrvawy4H5b1-48t-30" value="&lt;span style=&quot;&quot;&gt;enter user credentials&lt;/span&gt;" style="shape=parallelogram;perimeter=parallelogramPerimeter;whiteSpace=wrap;html=1;fixedSize=1;hachureGap=4;" vertex="1" parent="WIyWlLk6GJQsqaUBKTNV-1">
          <mxGeometry x="-75" y="140" width="150" height="40" as="geometry" />
        </mxCell>
        <mxCell id="ckQmLvrvawy4H5b1-48t-31" value="True" style="text;html=1;align=center;verticalAlign=middle;resizable=0;points=[];autosize=1;strokeColor=none;fillColor=none;hachureGap=4;" vertex="1" parent="WIyWlLk6GJQsqaUBKTNV-1">
          <mxGeometry x="100" y="310" width="40" height="20" as="geometry" />
        </mxCell>
        <mxCell id="ckQmLvrvawy4H5b1-48t-32" value="" style="endArrow=classic;html=1;rounded=0;startSize=14;endSize=14;sourcePerimeterSpacing=8;targetPerimeterSpacing=8;curved=1;exitX=0.5;exitY=1;exitDx=0;exitDy=0;entryX=0.5;entryY=0;entryDx=0;entryDy=0;" edge="1" parent="WIyWlLk6GJQsqaUBKTNV-1" source="ckQmLvrvawy4H5b1-48t-30" target="ckQmLvrvawy4H5b1-48t-29">
          <mxGeometry width="50" height="50" relative="1" as="geometry">
            <mxPoint x="-220" y="270" as="sourcePoint" />
            <mxPoint x="5" y="280" as="targetPoint" />
          </mxGeometry>
        </mxCell>
        <mxCell id="ckQmLvrvawy4H5b1-48t-33" value="" style="endArrow=classic;html=1;rounded=0;startSize=14;endSize=14;sourcePerimeterSpacing=8;targetPerimeterSpacing=8;curved=1;exitX=1;exitY=0.5;exitDx=0;exitDy=0;entryX=0;entryY=0.5;entryDx=0;entryDy=0;" edge="1" parent="WIyWlLk6GJQsqaUBKTNV-1" source="ckQmLvrvawy4H5b1-48t-29" target="ckQmLvrvawy4H5b1-48t-34">
          <mxGeometry width="50" height="50" relative="1" as="geometry">
            <mxPoint x="20" y="270" as="sourcePoint" />
            <mxPoint x="170" y="340" as="targetPoint" />
          </mxGeometry>
        </mxCell>
        <mxCell id="ckQmLvrvawy4H5b1-48t-34" value="User has logged in&amp;nbsp;&lt;br&gt;successfully" style="rounded=1;whiteSpace=wrap;html=1;hachureGap=4;" vertex="1" parent="WIyWlLk6GJQsqaUBKTNV-1">
          <mxGeometry x="180" y="280" width="120" height="60" as="geometry" />
        </mxCell>
        <mxCell id="ckQmLvrvawy4H5b1-48t-35" value="False" style="text;html=1;align=center;verticalAlign=middle;resizable=0;points=[];autosize=1;strokeColor=none;fillColor=none;hachureGap=4;" vertex="1" parent="WIyWlLk6GJQsqaUBKTNV-1">
          <mxGeometry x="-130" y="280" width="40" height="20" as="geometry" />
        </mxCell>
        <mxCell id="ckQmLvrvawy4H5b1-48t-36" value="User Credentials are&lt;br&gt;invalid" style="rounded=1;whiteSpace=wrap;html=1;hachureGap=4;" vertex="1" parent="WIyWlLk6GJQsqaUBKTNV-1">
          <mxGeometry x="-280" y="280" width="120" height="60" as="geometry" />
        </mxCell>
        <mxCell id="ckQmLvrvawy4H5b1-48t-37" value="" style="endArrow=classic;html=1;rounded=0;startSize=14;endSize=14;sourcePerimeterSpacing=8;targetPerimeterSpacing=8;curved=1;exitX=0;exitY=0.5;exitDx=0;exitDy=0;entryX=1;entryY=0.5;entryDx=0;entryDy=0;" edge="1" parent="WIyWlLk6GJQsqaUBKTNV-1" source="ckQmLvrvawy4H5b1-48t-29" target="ckQmLvrvawy4H5b1-48t-36">
          <mxGeometry width="50" height="50" relative="1" as="geometry">
            <mxPoint x="-140" y="260" as="sourcePoint" />
            <mxPoint x="-90" y="210" as="targetPoint" />
          </mxGeometry>
        </mxCell>
        <mxCell id="ckQmLvrvawy4H5b1-48t-38" value="Start user interface" style="rounded=1;whiteSpace=wrap;html=1;hachureGap=4;" vertex="1" parent="WIyWlLk6GJQsqaUBKTNV-1">
          <mxGeometry x="180" y="390" width="120" height="60" as="geometry" />
        </mxCell>
        <mxCell id="ckQmLvrvawy4H5b1-48t-39" value="" style="endArrow=classic;html=1;rounded=0;startSize=14;endSize=14;sourcePerimeterSpacing=8;targetPerimeterSpacing=8;curved=1;entryX=0.5;entryY=0;entryDx=0;entryDy=0;exitX=0.5;exitY=1;exitDx=0;exitDy=0;" edge="1" parent="WIyWlLk6GJQsqaUBKTNV-1" source="ckQmLvrvawy4H5b1-48t-34" target="ckQmLvrvawy4H5b1-48t-38">
          <mxGeometry width="50" height="50" relative="1" as="geometry">
            <mxPoint x="460" y="320" as="sourcePoint" />
            <mxPoint x="510" y="270" as="targetPoint" />
          </mxGeometry>
        </mxCell>
        <mxCell id="ckQmLvrvawy4H5b1-48t-40" value="&lt;span style=&quot;&quot;&gt;enter user credentials&lt;/span&gt;" style="shape=parallelogram;perimeter=parallelogramPerimeter;whiteSpace=wrap;html=1;fixedSize=1;hachureGap=4;" vertex="1" parent="WIyWlLk6GJQsqaUBKTNV-1">
          <mxGeometry x="-305" y="400" width="160" height="60" as="geometry" />
        </mxCell>
        <mxCell id="ckQmLvrvawy4H5b1-48t-41" value="" style="endArrow=classic;html=1;rounded=0;startSize=14;endSize=14;sourcePerimeterSpacing=8;targetPerimeterSpacing=8;curved=1;exitX=0.5;exitY=1;exitDx=0;exitDy=0;entryX=0.544;entryY=0.008;entryDx=0;entryDy=0;entryPerimeter=0;" edge="1" parent="WIyWlLk6GJQsqaUBKTNV-1" source="ckQmLvrvawy4H5b1-48t-36" target="ckQmLvrvawy4H5b1-48t-40">
          <mxGeometry width="50" height="50" relative="1" as="geometry">
            <mxPoint x="200" y="320" as="sourcePoint" />
            <mxPoint x="-240" y="410" as="targetPoint" />
          </mxGeometry>
        </mxCell>
        <mxCell id="ckQmLvrvawy4H5b1-48t-42" value="if user credentials &lt;br&gt;are&amp;nbsp;invalid&amp;nbsp;" style="rhombus;whiteSpace=wrap;html=1;hachureGap=4;" vertex="1" parent="WIyWlLk6GJQsqaUBKTNV-1">
          <mxGeometry x="-320" y="534.5" width="190" height="100" as="geometry" />
        </mxCell>
        <mxCell id="ckQmLvrvawy4H5b1-48t-43" value="" style="endArrow=classic;html=1;rounded=0;startSize=14;endSize=14;sourcePerimeterSpacing=8;targetPerimeterSpacing=8;curved=1;exitX=0;exitY=0.5;exitDx=0;exitDy=0;entryX=1;entryY=0.5;entryDx=0;entryDy=0;" edge="1" parent="WIyWlLk6GJQsqaUBKTNV-1" source="ckQmLvrvawy4H5b1-48t-42" target="ckQmLvrvawy4H5b1-48t-45">
          <mxGeometry width="50" height="50" relative="1" as="geometry">
            <mxPoint x="-315" y="490" as="sourcePoint" />
            <mxPoint x="-365" y="620" as="targetPoint" />
          </mxGeometry>
        </mxCell>
        <mxCell id="ckQmLvrvawy4H5b1-48t-44" value="False" style="text;html=1;align=center;verticalAlign=middle;resizable=0;points=[];autosize=1;strokeColor=none;fillColor=none;hachureGap=4;" vertex="1" parent="WIyWlLk6GJQsqaUBKTNV-1">
          <mxGeometry x="-370" y="555" width="40" height="20" as="geometry" />
        </mxCell>
        <mxCell id="ckQmLvrvawy4H5b1-48t-45" value="&lt;span style=&quot;&quot;&gt;User Credentials are&lt;/span&gt;&lt;br style=&quot;&quot;&gt;&lt;span style=&quot;&quot;&gt;invalid&lt;/span&gt;" style="rounded=1;whiteSpace=wrap;html=1;hachureGap=4;" vertex="1" parent="WIyWlLk6GJQsqaUBKTNV-1">
          <mxGeometry x="-533" y="555" width="120" height="60" as="geometry" />
        </mxCell>
        <mxCell id="ckQmLvrvawy4H5b1-48t-46" value="&lt;span style=&quot;&quot;&gt;User Credentials are&lt;/span&gt;&lt;br style=&quot;&quot;&gt;&lt;span style=&quot;&quot;&gt;invalid&lt;/span&gt;" style="rounded=1;whiteSpace=wrap;html=1;hachureGap=4;" vertex="1" parent="WIyWlLk6GJQsqaUBKTNV-1">
          <mxGeometry x="-20" y="555" width="120" height="60" as="geometry" />
        </mxCell>
        <mxCell id="ckQmLvrvawy4H5b1-48t-47" value="False" style="text;html=1;align=center;verticalAlign=middle;resizable=0;points=[];autosize=1;strokeColor=none;fillColor=none;hachureGap=4;" vertex="1" parent="WIyWlLk6GJQsqaUBKTNV-1">
          <mxGeometry x="-100" y="595" width="40" height="20" as="geometry" />
        </mxCell>
        <mxCell id="ckQmLvrvawy4H5b1-48t-48" value="" style="endArrow=classic;html=1;rounded=0;startSize=14;endSize=14;sourcePerimeterSpacing=8;targetPerimeterSpacing=8;curved=1;entryX=0;entryY=0.5;entryDx=0;entryDy=0;exitX=1;exitY=0.5;exitDx=0;exitDy=0;" edge="1" parent="WIyWlLk6GJQsqaUBKTNV-1" source="ckQmLvrvawy4H5b1-48t-42" target="ckQmLvrvawy4H5b1-48t-46">
          <mxGeometry width="50" height="50" relative="1" as="geometry">
            <mxPoint x="-365" y="590" as="sourcePoint" />
            <mxPoint x="-315" y="540" as="targetPoint" />
          </mxGeometry>
        </mxCell>
        <mxCell id="ckQmLvrvawy4H5b1-48t-49" value="" style="endArrow=classic;html=1;rounded=0;startSize=14;endSize=14;sourcePerimeterSpacing=8;targetPerimeterSpacing=8;curved=1;exitX=0.5;exitY=1;exitDx=0;exitDy=0;entryX=0.5;entryY=0;entryDx=0;entryDy=0;" edge="1" parent="WIyWlLk6GJQsqaUBKTNV-1" source="ckQmLvrvawy4H5b1-48t-40" target="ckQmLvrvawy4H5b1-48t-42">
          <mxGeometry width="50" height="50" relative="1" as="geometry">
            <mxPoint x="-130" y="570" as="sourcePoint" />
            <mxPoint x="-225" y="520" as="targetPoint" />
          </mxGeometry>
        </mxCell>
        <mxCell id="ckQmLvrvawy4H5b1-48t-50" value="End" style="ellipse;whiteSpace=wrap;html=1;hachureGap=4;" vertex="1" parent="WIyWlLk6GJQsqaUBKTNV-1">
          <mxGeometry x="-75" y="730" width="115" height="50" as="geometry" />
        </mxCell>
        <mxCell id="ckQmLvrvawy4H5b1-48t-51" value="&lt;span style=&quot;&quot;&gt;User Credentials are&lt;/span&gt;&lt;br style=&quot;&quot;&gt;&lt;span style=&quot;&quot;&gt;invalid&lt;/span&gt;" style="rounded=1;whiteSpace=wrap;html=1;hachureGap=4;" vertex="1" parent="WIyWlLk6GJQsqaUBKTNV-1">
          <mxGeometry x="-285" y="730" width="120" height="60" as="geometry" />
        </mxCell>
        <mxCell id="ckQmLvrvawy4H5b1-48t-52" value="" style="endArrow=classic;html=1;rounded=0;startSize=14;endSize=14;sourcePerimeterSpacing=8;targetPerimeterSpacing=8;curved=1;exitX=0.5;exitY=1;exitDx=0;exitDy=0;entryX=0.5;entryY=0;entryDx=0;entryDy=0;" edge="1" parent="WIyWlLk6GJQsqaUBKTNV-1" source="ckQmLvrvawy4H5b1-48t-42" target="ckQmLvrvawy4H5b1-48t-51">
          <mxGeometry width="50" height="50" relative="1" as="geometry">
            <mxPoint x="-130" y="680" as="sourcePoint" />
            <mxPoint x="-80" y="630" as="targetPoint" />
          </mxGeometry>
        </mxCell>
        <mxCell id="ckQmLvrvawy4H5b1-48t-53" value="False" style="text;html=1;align=center;verticalAlign=middle;resizable=0;points=[];autosize=1;strokeColor=none;fillColor=none;hachureGap=4;" vertex="1" parent="WIyWlLk6GJQsqaUBKTNV-1">
          <mxGeometry x="-270" y="660" width="40" height="20" as="geometry" />
        </mxCell>
        <mxCell id="ckQmLvrvawy4H5b1-48t-54" value="" style="endArrow=classic;html=1;rounded=0;startSize=14;endSize=14;sourcePerimeterSpacing=8;targetPerimeterSpacing=8;curved=1;exitX=0.5;exitY=1;exitDx=0;exitDy=0;exitPerimeter=0;" edge="1" parent="WIyWlLk6GJQsqaUBKTNV-1" source="ckQmLvrvawy4H5b1-48t-27">
          <mxGeometry width="50" height="50" relative="1" as="geometry">
            <mxPoint x="15" y="200" as="sourcePoint" />
            <mxPoint y="140" as="targetPoint" />
          </mxGeometry>
        </mxCell>
        <mxCell id="ckQmLvrvawy4H5b1-48t-55" value="" style="endArrow=classic;html=1;rounded=0;startSize=14;endSize=14;sourcePerimeterSpacing=8;targetPerimeterSpacing=8;curved=1;entryX=-0.008;entryY=0.606;entryDx=0;entryDy=0;exitX=1;exitY=0.5;exitDx=0;exitDy=0;entryPerimeter=0;" edge="1" parent="WIyWlLk6GJQsqaUBKTNV-1" target="ckQmLvrvawy4H5b1-48t-50">
          <mxGeometry width="50" height="50" relative="1" as="geometry">
            <mxPoint x="-170" y="759.5" as="sourcePoint" />
            <mxPoint x="-60" y="760" as="targetPoint" />
          </mxGeometry>
        </mxCell>
      </root>
    </mxGraphModel>
  </diagram>
</mxfile>
